<?xml version="1.0" encoding="utf-8"?>
<!-- Generator: Adobe Illustrator 23.0.2, SVG Export Plug-In . SVG Version: 6.00 Build 0)  -->
<svg version="1.1" id="Calque_1" xmlns="http://www.w3.org/2000/svg" xmlns:xlink="http://www.w3.org/1999/xlink" x="0px" y="0px"
	 viewBox="0 0 595.28 115.7" style="enable-background:new 0 0 595.28 115.7;" xml:space="preserve">
<style type="text/css">
	.st0{fill:#020203;}
	.st1{fill:#C81517;}
	.st2{fill:url(#SVGID_1_);}
	.st3{fill:url(#SVGID_2_);}
</style>
<g>
	<g>
		<path class="st0" d="M211.39,115.7l0.56-16.65l3.88-1.69l-0.61,16.19L211.39,115.7z"/>
		<path class="st0" d="M221.09,95.08l4.93-2.14l1.69,9.46l0.04-0.02l2.66-11.34l4.19-1.82l-0.78,13.91l-2.54,1.42l0.61-11.33
			l-0.04,0.02l-3.16,12.76l-2.36,1.32l-2.24-10.51l-0.05,0.02l-0.55,12.08l-3.06,1.71L221.09,95.08z"/>
		<path class="st0" d="M238.35,87.58l3.63-1.58l1.06,8.36l0.03-0.02l2.19-9.76l3.15-1.37l-0.85,12.21l-1.92,1.08l0.67-9.91
			l-0.03,0.01l-2.6,11l-1.77,0.99l-1.43-9.32l-0.03,0.02l-0.65,10.49l-2.26,1.27L238.35,87.58z"/>
		<path class="st0" d="M250.6,88.04c0.06-0.9,0.16-1.75,0.28-2.54c0.12-0.79,0.32-1.52,0.58-2.17c0.27-0.65,0.62-1.21,1.06-1.7
			c0.44-0.48,1-0.88,1.69-1.17c0.67-0.29,1.19-0.37,1.56-0.25c0.36,0.12,0.63,0.4,0.79,0.82c0.16,0.42,0.24,0.98,0.25,1.67
			c0,0.69-0.03,1.45-0.09,2.29c-0.07,0.84-0.15,1.63-0.27,2.37c-0.11,0.74-0.29,1.42-0.53,2.03c-0.24,0.62-0.57,1.18-0.97,1.68
			c-0.41,0.51-0.95,0.95-1.63,1.33c-0.68,0.39-1.23,0.55-1.62,0.49c-0.4-0.06-0.69-0.3-0.88-0.71c-0.19-0.41-0.29-0.98-0.3-1.7
			C250.51,89.75,250.54,88.94,250.6,88.04z M252.5,87.09c-0.06,0.78-0.09,1.44-0.1,1.97c-0.01,0.53,0.02,0.94,0.08,1.23
			c0.06,0.29,0.17,0.47,0.33,0.53c0.15,0.07,0.37,0.02,0.64-0.12c0.27-0.15,0.49-0.34,0.66-0.58c0.17-0.24,0.31-0.55,0.43-0.93
			c0.11-0.38,0.2-0.84,0.27-1.39c0.07-0.55,0.13-1.2,0.19-1.96c0.06-0.76,0.09-1.4,0.1-1.92c0.01-0.52-0.01-0.93-0.07-1.23
			c-0.06-0.3-0.17-0.49-0.31-0.58c-0.15-0.08-0.36-0.06-0.63,0.06c-0.27,0.12-0.49,0.3-0.67,0.53c-0.18,0.23-0.33,0.55-0.44,0.94
			c-0.12,0.39-0.21,0.87-0.28,1.43C252.63,85.64,252.56,86.31,252.5,87.09z"/>
	</g>
	<g>
		<g>
			<path class="st1" d="M234.79,43.2l-1.45-2.27l19.82-24.36l-9.47-3.75L225.19,32.2V5.49L211.36,0v95.75l13.83-5.48V50.27
				l0.82-0.92l22.67,31.61l8.16-3.23L234.79,43.2z"/>
		</g>
		<g>
			<path class="st0" d="M199.12,57.52V0L188.2,5.4l-19.85,43.57l-5.76,12.64l24.24,5.5v22.58l12.29,6.07V69.9l10.64,2.42V58.57
				L199.12,57.52z M186.83,56.3l-12.96-1.29l4.08-7.72l8.88-16.81V56.3z"/>
		</g>
	</g>
	<radialGradient id="SVGID_1_" cx="183.7305" cy="24.485" r="20.4476" gradientUnits="userSpaceOnUse">
		<stop  offset="0" style="stop-color:#FFFFFF;stop-opacity:0.05"/>
		<stop  offset="0.9996" style="stop-color:#FFFFFF;stop-opacity:0.25"/>
	</radialGradient>
	<path class="st2" d="M199.12,0v44.8c-4.46,0.38-8.56,0.81-12.29,1.27V30.48l-8.88,16.81c-3.78,0.58-6.98,1.16-9.6,1.68L188.2,5.4
		L199.12,0z"/>
	<radialGradient id="SVGID_2_" cx="232.2569" cy="21.9808" r="21.443" gradientUnits="userSpaceOnUse">
		<stop  offset="0" style="stop-color:#FFFFFF;stop-opacity:0.05"/>
		<stop  offset="0.9996" style="stop-color:#FFFFFF;stop-opacity:0.15"/>
	</radialGradient>
	<path class="st3" d="M233.33,40.93l1.45,2.27c-1.24,0.11-2.55,0.17-3.92,0.18c-6.99,0.05-13.5,0.26-19.5,0.58V0l13.83,5.48V32.2
		l18.49-19.37l9.47,3.75L233.33,40.93z"/>
</g>
<polygon class="st1" points="269.79,26.95 269.79,27.18 298.22,55.61 269.79,84.04 269.79,84.28 595.28,84.28 595.28,26.95 "/>
<polygon class="st1" points="122.64,55.61 151.18,27.06 0,27.06 0,84.39 151.18,84.39 151.18,84.16 151.18,84.16 "/>
</svg>
