<svg id="Calque_1" data-name="Calque 1" xmlns="http://www.w3.org/2000/svg" xmlns:xlink="http://www.w3.org/1999/xlink" viewBox="0 0 408 500.7"><defs><style>.cls-1{fill:#c80000;}.cls-2{fill:url(#Dégradé_sans_nom_5);}.cls-3{fill:url(#Dégradé_sans_nom_3);}</style><radialGradient id="Dégradé_sans_nom_5" cx="190.31" cy="281.55" r="88.5" gradientUnits="userSpaceOnUse"><stop offset="0" stop-color="#fff" stop-opacity="0.05"/><stop offset="1" stop-color="#fff" stop-opacity="0.2"/></radialGradient><radialGradient id="Dégradé_sans_nom_3" cx="400.34" cy="270.7" r="92.8" gradientUnits="userSpaceOnUse"><stop offset="0" stop-color="#fff" stop-opacity="0.05"/><stop offset="1" stop-color="#fff" stop-opacity="0.15"/></radialGradient></defs><title>Logo4K_Immo</title><path d="M310,676.3l2.5-72.1,16.7-7.3L326.6,667Z" transform="translate(-98.8 -175.6)"/><path d="M352,587l21.3-9.2,7.3,40.9h.2l11.5-49.1,18.1-7.8-3.3,60.2-11,6.1,2.6-49h-.2l-13.7,55.2-10.2,5.8-9.7-45.5h-.2L362.3,647l-13.2,7.4Z" transform="translate(-98.8 -175.6)"/><path d="M426.7,554.6l15.7-6.8,4.6,36.1h.1l9.5-42.3,13.7-5.9-3.7,52.8-8.3,4.7,2.9-42.9H461l-11.2,47.6-7.6,4.3L436,561.9h-.2L433,607.3l-9.8,5.5Z" transform="translate(-98.8 -175.6)"/><path d="M479.7,556.6c.3-3.9.7-7.5,1.2-11a43,43,0,0,1,2.6-9.4,22.1,22.1,0,0,1,4.6-7.3,20.8,20.8,0,0,1,7.3-5.1c2.9-1.3,5.1-1.6,6.7-1.1a5.6,5.6,0,0,1,3.4,3.6,20.2,20.2,0,0,1,1.1,7.2c0,3-.1,6.3-.4,9.9s-.7,7.1-1.1,10.3a42.5,42.5,0,0,1-2.3,8.7,28.1,28.1,0,0,1-4.3,7.3,24.1,24.1,0,0,1-7,5.8c-3,1.6-5.3,2.3-7,2.1a5.2,5.2,0,0,1-3.8-3.1,18.5,18.5,0,0,1-1.3-7.4A97.3,97.3,0,0,1,479.7,556.6Zm8.3-4.1c-.3,3.4-.4,6.2-.5,8.5a25.8,25.8,0,0,0,.4,5.4c.3,1.2.7,2,1.4,2.3s1.6.1,2.8-.6a7.5,7.5,0,0,0,2.8-2.5,11.5,11.5,0,0,0,1.9-4,50.7,50.7,0,0,0,1.1-6c.3-2.3.6-5.2.8-8.5s.4-6,.5-8.3a37,37,0,0,0-.3-5.3,3.5,3.5,0,0,0-1.4-2.5,3,3,0,0,0-2.7.3,6.5,6.5,0,0,0-2.9,2.3,11.5,11.5,0,0,0-1.9,4,40.2,40.2,0,0,0-1.2,6.2C488.5,546.2,488.2,549.1,488,552.5Z" transform="translate(-98.8 -175.6)"/><path class="cls-1" d="M411.3,362.5h0l-6.3-9.8,85.8-105.4-41-16.2-80,83.8V199.3l-59.9-23.7V590l59.9-23.7V393.1l3.5-3.9L471.4,526l35.3-14Z" transform="translate(-98.8 -175.6)"/><path d="M256.9,424.5V175.6l-47.2,23.3-86,188.6L98.8,442.2,203.7,466v97.7L256.9,590V478.1L303,488.5V429.1Zm-53.2-5.3-56.1-5.6,17.7-33.3,38.4-72.8Z" transform="translate(-98.8 -175.6)"/><path class="cls-2" d="M209.7,198.9l47.2-23.3V369.5c-19.3,1.6-37.1,3.5-53.2,5.5V307.5l-38.4,72.8c-16.4,2.5-30.2,5-41.6,7.2Z" transform="translate(-98.8 -175.6)"/><path class="cls-3" d="M405,352.7l6.3,9.8c-5.4.5-11.1.8-17,.8-30.3.2-58.4,1.1-84.4,2.5V175.6l59.9,23.7V314.9l80-83.8,41,16.2Z" transform="translate(-98.8 -175.6)"/></svg>